<?xml version="1.0" encoding="utf-8"?>
<!-- Generator: Adobe Illustrator 19.2.0, SVG Export Plug-In . SVG Version: 6.00 Build 0)  -->
<svg version="1.1" id="Layer_1" xmlns:sketch="http://www.bohemiancoding.com/sketch/ns"
	 xmlns="http://www.w3.org/2000/svg" xmlns:xlink="http://www.w3.org/1999/xlink" x="0px" y="0px" width="49px" height="45px"
	 viewBox="0 0 49 45" style="enable-background:new 0 0 49 45;" xml:space="preserve">
<style type="text/css">
	.st0{fill:#FFFFFF;stroke:#323639;stroke-width:2;stroke-linecap:round;stroke-linejoin:round;}
	.st1{fill:#323639;}
	.st2{fill:none;stroke:#323639;stroke-width:2;stroke-linecap:square;stroke-linejoin:round;}
	.st3{fill:#F28400;stroke:#323639;stroke-width:2;stroke-linecap:round;stroke-linejoin:round;}
	.st4{fill:none;stroke:#323639;stroke-width:2;}
	.st5{fill:#FFFFFF;}
</style>
<title>mac</title>
<desc>Created with Sketch.</desc>
<g id="Jobs" sketch:type="MSPage">
	<g id="mac" transform="translate(-351.000000, -955.000000)" sketch:type="MSArtboardGroup">
		<g transform="translate(352.000000, 956.000000)" sketch:type="MSLayerGroup">
			<g id="Group-25">
				<g id="Group-23" sketch:type="MSShapeGroup">
					<g id="Group-12-Copy-3">
						<path id="Stroke-1" class="st0" d="M0,34c0,0.9,1.1,2,2,2h43c0.9,0,2-1.1,2-2V2c0-0.9-1.1-2-2-2H2C1.1,0,0,1.1,0,2V34z"/>
						<circle id="Oval-29" class="st1" cx="23.5" cy="32.5" r="1.5"/>
						<path id="Stroke-11" class="st0" d="M28.8,36l4.2,7H14l4.2-7H28.8L28.8,36z"/>
						<path id="Stroke-13" class="st2" d="M11,43h25"/>
						<path id="Stroke-17" class="st3" d="M43,25H4V4h39V25z"/>
						<path id="Path-747" class="st4" d="M1,29h46"/>
					</g>
				</g>
			</g>
		</g>
	</g>
</g>
<g>
	<path class="st5" d="M31.9,14.4v2.1c0,0.1,0,0.2-0.1,0.2c-0.1,0.1-0.1,0.1-0.2,0.1l-1.8,0.3c-0.1,0.3-0.2,0.6-0.4,0.9
		c0.2,0.3,0.6,0.8,1,1.3c0.1,0.1,0.1,0.2,0.1,0.2s0,0.2-0.1,0.2c-0.2,0.2-0.5,0.6-1,1s-0.8,0.7-0.9,0.7c-0.1,0-0.2,0-0.3-0.1l-1.3-1
		c-0.3,0.1-0.6,0.3-0.9,0.4c-0.1,0.9-0.2,1.5-0.3,1.8c0,0.2-0.2,0.3-0.3,0.3h-2.1c-0.1,0-0.2,0-0.2-0.1c-0.1-0.1-0.1-0.1-0.1-0.2
		l-0.3-1.8c-0.3-0.1-0.6-0.2-0.9-0.4l-1.4,1c-0.1,0.1-0.1,0.1-0.2,0.1c-0.1,0-0.2,0-0.2-0.1c-0.8-0.7-1.3-1.3-1.6-1.6
		c0-0.1-0.1-0.1-0.1-0.2c0-0.1,0-0.2,0.1-0.2c0.1-0.1,0.3-0.3,0.5-0.6c0.2-0.3,0.4-0.5,0.5-0.7c-0.2-0.3-0.3-0.6-0.4-1l-1.8-0.3
		c-0.1,0-0.2-0.1-0.2-0.1s-0.1-0.1-0.1-0.2v-2.1c0-0.1,0-0.2,0.1-0.2c0.1-0.1,0.1-0.1,0.2-0.1l1.8-0.3c0.1-0.3,0.2-0.6,0.4-0.9
		c-0.3-0.4-0.6-0.8-1-1.3c-0.1-0.1-0.1-0.2-0.1-0.2c0-0.1,0-0.1,0.1-0.2c0.2-0.2,0.5-0.6,1-1c0.5-0.5,0.8-0.7,0.9-0.7
		c0.1,0,0.2,0,0.3,0.1l1.3,1c0.3-0.1,0.6-0.3,0.9-0.4c0.1-0.9,0.2-1.5,0.3-1.8c0-0.2,0.2-0.3,0.3-0.3h2.1c0.1,0,0.2,0,0.2,0.1
		c0.1,0.1,0.1,0.1,0.1,0.2l0.3,1.8c0.3,0.1,0.6,0.2,0.9,0.4l1.4-1c0.1-0.1,0.1-0.1,0.2-0.1c0.1,0,0.2,0,0.2,0.1
		c0.8,0.8,1.4,1.3,1.6,1.6c0,0.1,0.1,0.1,0.1,0.2c0,0.1,0,0.2-0.1,0.2c-0.1,0.1-0.3,0.3-0.5,0.6c-0.2,0.3-0.4,0.5-0.5,0.7
		c0.2,0.3,0.3,0.6,0.4,0.9l1.8,0.3c0.1,0,0.2,0.1,0.2,0.1C31.9,14.3,31.9,14.4,31.9,14.4z M26.2,17.2c0.5-0.5,0.7-1.1,0.7-1.7
		c0-0.7-0.2-1.3-0.7-1.7c-0.5-0.5-1.1-0.7-1.7-0.7s-1.3,0.2-1.7,0.7c-0.5,0.5-0.7,1.1-0.7,1.7c0,0.7,0.2,1.3,0.7,1.7
		c0.5,0.5,1.1,0.7,1.7,0.7S25.8,17.7,26.2,17.2z"/>
</g>
</svg>
