<?xml version="1.0" encoding="UTF-8" standalone="no"?>
<svg width="44px" height="58px" viewBox="0 0 44 58" version="1.1" xmlns="http://www.w3.org/2000/svg" xmlns:xlink="http://www.w3.org/1999/xlink" xmlns:sketch="http://www.bohemiancoding.com/sketch/ns">
    <!-- Generator: Sketch 3.5.2 (25235) - http://www.bohemiancoding.com/sketch -->
    <title>Track in one place</title>
    <desc>Created with Sketch.</desc>
    <defs></defs>
    <g id="Landing" stroke="none" stroke-width="1" fill="none" fill-rule="evenodd" sketch:type="MSPage">
        <g id="Landing_Desktop" sketch:type="MSArtboardGroup" transform="translate(-358.000000, -469.000000)" stroke="#323639" stroke-width="2">
            <g id="Features" sketch:type="MSLayerGroup" transform="translate(0.000000, 430.000000)">
                <g id="Track-in-one-place" transform="translate(359.000000, 40.000000)" sketch:type="MSShapeGroup">
                    <path d="M9.14671019,40.8489328 C9.44068969,40.3800801 10.131284,40 10.681108,40 L31.3186199,40 C31.8720649,40 32.5588166,40.3797266 32.8530178,40.8489328 L41.8207278,55.1510672 C42.1147073,55.6199199 41.9023086,56 41.3602414,56 L0.639486596,56 C0.0911874472,56 -0.115201012,55.6202734 0.179000143,55.1510672 L9.14671019,40.8489328 Z" id="Rectangle-142" stroke-linecap="round" stroke-linejoin="round" fill="#FFFFFF"></path>
                    <path d="M21,22 C17.1330603,22 14,18.8659761 14,15.000075 C14,11.1340239 17.1330603,8 21,8 C24.8649883,8 28,11.1340239 28,15.000075 C28,18.8659761 24.8649883,22 21,22 L21,22 Z M21.0005943,0 C12.2069283,0 6.04096123,6.47342667 6.00013795,15.6442 C5.9474579,27.5104133 21.0005943,44 21.0005943,44 C21.0005943,44 36.0001501,27.5104133 36,15.6442 C35.9998499,6.47342667 29.7942602,0 21.0005943,0 L21.0005943,0 Z" id="Stroke-5" stroke-linecap="round" stroke-linejoin="round" fill="#F28400"></path>
                    <path d="M15,49 L27,49" id="Path-166" stroke-linecap="square"></path>
                </g>
            </g>
        </g>
    </g>
</svg>